# xmcd
#
# Track frame offsets:
# 150
# 20023
# 37521
# 58695
# 78873
# 97477
# 111003
# 125987
# 143330
# 160272
# 178464
# 198490
# 215572
#
# Disc length: 3013 seconds
#
#
# Revision: 0
# Processed by: cddbd v1.5.2PL0 Copyright (c) Steve Scherf et al.
# Submitted via: Nero 7, 11, 10, 0 
#
DISCID=ba0bc30d
DTITLE=Jack And The Rippers - Dark Streets
DYEAR=1995
DGENRE=Blues
TTITLE0=Dark Streets
TTITLE1=I Get Love
TTITLE2=Tuff Luck
TTITLE3=Metro Boogie
TTITLE4=Zipper Lips
TTITLE5=Tyrone's Night Out
TTITLE6=Kiss N' Tell
TTITLE7=Betty Jane
TTITLE8=Rosie's Place
TTITLE9=Honey Man
TTITLE10=The Storm
TTITLE11=Heart Strings
TTITLE12=A Quiet Farewell
EXTD=
EXTT0=Dark Streets
EXTT1=I Get Love
EXTT2=Tuff Luck
EXTT3=Metro Boogie
EXTT4=Zipper Lips
EXTT5=Tyrone's Night Out
EXTT6=Kiss N' Tell
EXTT7=Betty Jane
EXTT8=Rosie's Place
EXTT9=Honey Man
EXTT10=The Storm
EXTT11=Heart Strings
EXTT12=A Quiet Farewell
PLAYORDER=
